Coordinates
version=1
nRows=9
nColumns=24
inDegrees=yes

Units are S.I. units (second, meters, Newtons, ...)
Angles are in degrees.

endheader
time	pelvis_tilt	pelvis_list	pelvis_rotation	pelvis_tx	pelvis_ty	pelvis_tz	hip_flexion_r	hip_adduction_r	hip_rotation_r	knee_angle_r	ankle_angle_r	subtalar_angle_r	mtp_angle_r	hip_flexion_l	hip_adduction_l	hip_rotation_l	knee_angle_l	ankle_angle_l	subtalar_angle_l	mtp_angle_l	lumbar_extension	lumbar_bending	lumbar_rotation
      1.06300000	     -2.13851465	     -1.88213929	     -5.98852912	     -0.15484610	      0.88690234	      0.38226570	    -16.01308748	      6.09284302	      1.92560355	     -6.43711208	     18.73955449	     14.01906698	      7.86131808	     27.88930216	     -3.36845228	    -14.41261657	     -6.24731420	      2.19861843	      0.42973966	     -1.74433231	     -5.36802422	      2.59800874	     12.73571876
      1.06716667	     -2.19059251	     -1.80500318	     -6.09753739	     -0.14920777	      0.88585078	      0.38225084	    -16.06134751	      5.91942356	      1.81431196	     -7.01224626	     18.96892346	     14.41350740	      8.42629021	     27.99773812	     -3.27809752	    -14.18381364	     -6.61105996	      2.05403063	      0.19149250	     -1.63785627	     -5.31512190	      2.42796383	     12.81902380
      1.07133333	     -2.32411032	     -1.75924519	     -6.21859733	     -0.14360716	      0.88474562	      0.38230396	    -16.01599549	      5.79939251	      1.87712818	     -7.59965744	     19.06998874	     14.51270259	      8.58253894	     28.22065936	     -3.24920644	    -13.96850213	     -7.10674136	      1.91015551	      0.01592494	     -1.59629976	     -5.16097271	      2.30499323	     12.84914590
      1.07550000	     -2.41861686	     -1.68419887	     -6.32339246	     -0.13796045	      0.88374446	      0.38229939	    -15.98397526	      5.63999119	      1.84479169	     -8.24296387	     19.19931934	     14.74603654	      8.77971310	     28.39328240	     -3.17221352	    -13.72628758	     -7.64499691	      1.71269900	     -0.28441745	     -1.53262882	     -5.04975819	      2.13921296	     12.89181526
      1.07966667	     -2.41992118	     -1.55023671	     -6.40277687	     -0.13219142	      0.88294525	      0.38222309	    -16.04950061	      5.39993188	      1.68997031	     -8.88434924	     19.31834526	     15.13615283	      9.77981761	     28.42279688	     -2.99707062	    -13.43725891	     -8.14560998	      1.41192379	     -0.81113999	     -1.14404004	     -5.03307176	      1.88154081	     12.91271531
      1.08383333	     -2.52477423	     -1.48510162	     -6.47098309	     -0.12648645	      0.88205739	      0.38218874	    -15.99954669	      5.26512230	      1.68384717	     -9.52512760	     19.16660004	     15.20236063	     12.72973206	     28.62970990	     -2.92543927	    -13.19489307	     -8.83501770	      1.12033007	     -1.15930292	      0.16351228	     -4.89836536	      1.73694163	     12.89527246
      1.08800000	     -2.60337862	     -1.38420412	     -6.54676704	     -0.12073688	      0.88126783	      0.38215281	    -15.94489263	      5.08477615	      1.66960808	    -10.24069138	     19.14321651	     15.33784162	     12.77586675	     28.79917350	     -2.81594596	    -12.98304411	     -9.55735607	      0.86350613	     -1.52925242	      0.18866664	     -4.78886164	      1.53058607	     12.89699412
      1.09216667	     -2.66065127	     -1.26741984	     -6.59503674	     -0.11492836	      0.88057762	      0.38205488	    -15.89724947	      4.88600345	      1.58302519	    -10.98293947	     19.06450307	     15.54719618	     12.88132913	     28.93196282	     -2.66329054	    -12.70235633	    -10.28110406	      0.54771690	     -2.05803068	      0.23668495	     -4.69502179	      1.30677173	     12.86971489
      1.09633333	     -2.69998389	     -1.14062043	     -6.63317667	     -0.10907938	      0.87998527	      0.38193909	    -15.85422828	      4.67638746	      1.50353496	    -11.75012574	     18.92127309	     15.71446750	     13.03680818	     29.04353265	     -2.49364899	    -12.43428904	    -11.03335347	      0.22740427	     -2.61092697	      0.30155078	     -4.62008004	      1.06392235	     12.81788591
